<mxfile host="app.diagrams.net" modified="2024-03-24T01:02:19.326Z" agent="Mozilla/5.0 (X11; Ubuntu; Linux x86_64; rv:123.0) Gecko/20100101 Firefox/123.0" etag="XSjNRygNOcg5KLZb6bfc" version="24.1.0" type="github">
  <diagram name="Page-1" id="C3Hmc5k3WOy9ybObfjKQ">
    <mxGraphModel dx="1050" dy="585" grid="1" gridSize="10" guides="1" tooltips="1" connect="1" arrows="1" fold="1" page="1" pageScale="1" pageWidth="850" pageHeight="1100" math="0" shadow="0">
      <root>
        <mxCell id="0" />
        <mxCell id="1" parent="0" />
      </root>
    </mxGraphModel>
  </diagram>
</mxfile>
